<?xml version="1.0" encoding="UTF-8"?><svg id="Lag_1" xmlns="http://www.w3.org/2000/svg" viewBox="0 0 116.21 202.56"><defs><style>.cls-1{fill:#fff;}</style></defs><path class="cls-1" d="M43.18,138.59c0-14.39,1.29-24.74,3.87-31.06,2.57-6.3,8.03-13.19,16.39-20.65,7.29-6.4,12.84-11.95,16.65-16.66,3.82-4.71,5.74-10.08,5.74-16.12,0-7.29-2.44-13.33-7.32-18.12-4.89-4.8-11.69-7.2-20.39-7.2-9.06,0-15.95,2.75-20.66,8.26-4.71,5.51-8.03,11.11-9.99,16.79L0,42.11C3.73,30.74,10.57,20.88,20.52,12.53,30.47,4.18,43,0,58.1,0c18.66,0,33.01,5.2,43.05,15.6,10.04,10.39,15.05,22.87,15.05,37.44,0,8.88-1.91,16.48-5.73,22.79-3.82,6.3-9.82,13.45-18,21.45-8.71,8.35-13.99,14.7-15.85,19.05-1.87,4.36-2.8,11.78-2.8,22.26h-30.65Zm14.93,63.97c-5.86,0-10.88-2.09-15.05-6.26-4.18-4.18-6.27-9.2-6.27-15.06s2.09-10.89,6.27-15.06c4.17-4.17,9.19-6.26,15.05-6.26s10.88,2.09,15.06,6.26c4.17,4.18,6.26,9.2,6.26,15.06s-2.09,10.89-6.26,15.06c-4.18,4.17-9.2,6.26-15.06,6.26Z"/></svg>